<svg width="128" height="129" viewBox="0 0 128 129" fill="none" xmlns="http://www.w3.org/2000/svg">
<g clip-path="url(#clip0_537_3364)">
<rect x="3.5" y="4" width="121" height="121" rx="60.5" fill="white"/>
<rect x="3.5" y="4" width="121" height="121" rx="60.5" stroke="#00CCFF" stroke-width="7" stroke-linecap="round" stroke-dasharray="6.5 23.25"/>
<path d="M34.2471 100.336V94.1424L43.0955 92.0409V36.9595L34.2471 34.858V28.6641H65.3272C71.5948 28.6641 76.8301 29.2908 81.0331 30.5443C85.2361 31.7979 88.4068 33.9362 90.5452 36.9595C92.6835 39.9089 93.7527 44.0382 93.7527 49.3472C93.7527 54.2139 92.5729 58.3431 90.2133 61.735C87.8538 65.0532 84.6831 67.5234 80.7013 69.1456C76.7195 70.7678 72.2953 71.542 67.4287 71.4683C66.8388 71.4683 66.2489 71.4683 65.659 71.4683C65.1428 71.3946 64.5898 71.3208 63.9999 71.2471L63.4469 66.0486C66.9862 65.6062 69.7514 64.7583 71.7423 63.5047C73.7332 62.2512 75.1342 60.4446 75.9453 58.0851C76.7564 55.7255 77.1619 52.776 77.1619 49.2366C77.1619 45.5498 76.1665 42.6003 74.1756 40.3882C72.1847 38.1761 69.0877 37.0701 64.8847 37.0701C63.7049 37.0701 62.562 37.1069 61.456 37.1807C60.3499 37.2544 59.4651 37.365 58.8014 37.5125V92.0409L67.6499 94.1424V100.336H34.2471Z" fill="black"/>
</g>
<defs>
<clipPath id="clip0_537_3364">
<rect y="0.5" width="128" height="128" rx="64" fill="white"/>
</clipPath>
</defs>
</svg>
